<svg xmlns="http://www.w3.org/2000/svg" version="1.1" width="100" height="100" viewBox="0 0 100 100"><rect x="0" y="0" width="100" height="100" fill="#ffffff"/><g transform="scale(4.762)"><g transform="translate(0,0)"><path fill-rule="evenodd" d="M9 0L9 1L8 1L8 2L9 2L9 3L8 3L8 4L9 4L9 3L10 3L10 2L9 2L9 1L10 1L10 0ZM12 0L12 1L11 1L11 2L12 2L12 1L13 1L13 0ZM11 3L11 4L10 4L10 5L8 5L8 7L9 7L9 6L10 6L10 8L6 8L6 9L5 9L5 8L0 8L0 9L1 9L1 10L2 10L2 12L4 12L4 13L8 13L8 15L9 15L9 16L8 16L8 21L9 21L9 18L10 18L10 17L12 17L12 18L13 18L13 17L12 17L12 16L13 16L13 15L14 15L14 17L15 17L15 19L14 19L14 21L16 21L16 20L18 20L18 21L19 21L19 20L18 20L18 18L17 18L17 19L16 19L16 17L15 17L15 15L16 15L16 16L17 16L17 15L16 15L16 14L17 14L17 13L18 13L18 12L17 12L17 11L16 11L16 10L17 10L17 9L18 9L18 11L19 11L19 13L20 13L20 11L21 11L21 9L20 9L20 8L19 8L19 9L18 9L18 8L17 8L17 9L16 9L16 8L15 8L15 9L14 9L14 8L13 8L13 4L12 4L12 3ZM11 5L11 7L12 7L12 5ZM10 8L10 10L9 10L9 9L8 9L8 10L7 10L7 9L6 9L6 10L7 10L7 11L6 11L6 12L7 12L7 11L9 11L9 12L10 12L10 10L12 10L12 11L11 11L11 12L12 12L12 13L9 13L9 14L10 14L10 16L9 16L9 17L10 17L10 16L12 16L12 13L14 13L14 15L15 15L15 14L16 14L16 13L17 13L17 12L15 12L15 10L14 10L14 11L13 11L13 10L12 10L12 8ZM2 9L2 10L4 10L4 11L5 11L5 9ZM19 9L19 11L20 11L20 9ZM0 11L0 13L1 13L1 11ZM20 14L20 15L21 15L21 14ZM18 15L18 17L19 17L19 15ZM20 16L20 17L21 17L21 16ZM11 19L11 20L12 20L12 21L13 21L13 19ZM15 19L15 20L16 20L16 19ZM20 19L20 20L21 20L21 19ZM0 0L0 7L7 7L7 0ZM1 1L1 6L6 6L6 1ZM2 2L2 5L5 5L5 2ZM14 0L14 7L21 7L21 0ZM15 1L15 6L20 6L20 1ZM16 2L16 5L19 5L19 2ZM0 14L0 21L7 21L7 14ZM1 15L1 20L6 20L6 15ZM2 16L2 19L5 19L5 16Z" fill="#000000"/></g></g></svg>